# xmcd
#
# Track frame offsets:
# 150
# 12894
# 26188
# 36410
# 48736
# 60700
# 73138
# 89344
# 104895
# 116789
# 130132
# 144241
#
# Disc length: 2119 seconds
#
#
# Revision: 0
# Processed by: cddbd v1.5.2PL0 Copyright (c) Steve Scherf et al.
# Submitted via: FreeRIP 2.95 
#
DISCID=b708450c
DTITLE=Leoncio e Leonel - 
DYEAR=1900
DGENRE=Freestyle
TTITLE0=Fingida
TTITLE1=Dia Feliz
TTITLE2=Mineirinha
TTITLE3=Vai de Roda
TTITLE4=Casinha de Aco
TTITLE5=Gostei de Ver
TTITLE6=Tragedia de Goias
TTITLE7=Pitoco
TTITLE8=Gaucho Forte
TTITLE9=Alma de Pedra
TTITLE10=Querida
TTITLE11=Bambole de Baiano
EXTD=
EXTT0=
EXTT1=
EXTT2=
EXTT3=
EXTT4=
EXTT5=
EXTT6=
EXTT7=
EXTT8=
EXTT9=
EXTT10=
EXTT11=
PLAYORDER=
